<?xml version="1.0" standalone="no"?>
<!DOCTYPE svg PUBLIC "-//W3C//DTD SVG 20010904//EN"
 "http://www.w3.org/TR/2001/REC-SVG-20010904/DTD/svg10.dtd">
<svg version="1.0" xmlns="http://www.w3.org/2000/svg"
 width="1280.000000pt" height="698.000000pt" viewBox="0 0 1280.000000 698.000000"
 preserveAspectRatio="xMidYMid meet">

<g transform="translate(0.000000,698.000000) scale(0.100000,-0.100000)"
fill="#000000" stroke="none">
<path d="M6450 6332 c82 -54 129 -138 116 -206 -11 -54 -12 -55 -171 -60 -225
-7 -352 -35 -374 -83 -11 -24 -10 -25 11 -18 221 68 518 72 711 9 27 -9 51
-14 53 -11 10 9 -15 45 -35 52 -19 6 -31 32 -31 70 0 35 -46 119 -90 164 -45
45 -119 85 -180 94 l-35 6 25 -17z"/>
<path d="M6264 6306 c-15 -12 -16 -17 -7 -27 16 -16 63 3 63 26 0 19 -30 19
-56 1z"/>
<path d="M6174 6245 c-30 -20 -54 -76 -54 -122 l1 -38 21 40 c11 22 34 55 50
73 23 27 27 37 17 48 -14 17 -10 17 -35 -1z"/>
<path d="M5845 6159 c-386 -83 -752 -250 -1081 -494 -146 -109 -416 -377 -528
-524 -226 -298 -387 -617 -485 -961 -130 -457 -142 -955 -34 -1415 38 -164
126 -413 199 -565 66 -137 183 -340 196 -340 4 0 12 9 18 21 10 18 3 35 -46
117 -31 54 -65 111 -75 127 -22 38 -117 257 -152 350 -120 319 -179 727 -157
1082 36 596 240 1124 616 1598 96 122 293 320 412 416 84 68 319 225 422 281
185 102 480 210 688 252 108 22 131 33 132 64 0 16 -16 15 -125 -9z"/>
<path d="M6846 6171 c-9 -14 4 -40 22 -45 10 -3 62 -14 117 -25 386 -78 819
-295 1141 -573 526 -454 866 -1071 960 -1744 22 -154 25 -551 6 -708 -47 -378
-191 -795 -384 -1102 -39 -64 -44 -79 -29 -103 15 -24 35 1 117 145 188 334
295 665 349 1077 20 154 20 473 0 637 -127 1049 -815 1942 -1780 2309 -130 49
-294 98 -390 115 -49 9 -97 19 -107 22 -9 3 -19 1 -22 -5z"/>
<path d="M6573 5959 c11 -41 -1 -49 -77 -50 l-71 -1 115 -18 c126 -19 190 -35
233 -56 l27 -15 0 49 c0 57 -6 62 -134 92 -100 25 -100 25 -93 -1z"/>
<path d="M6076 5944 c-56 -20 -66 -32 -66 -74 l0 -37 52 18 c53 17 53 18 56
63 2 25 2 46 0 45 -2 0 -21 -7 -42 -15z"/>
<path d="M5825 5848 c-216 -129 -410 -393 -474 -644 -127 -501 60 -899 815
-1729 225 -248 230 -252 252 -239 22 14 325 344 452 493 128 151 210 258 210
274 0 8 -12 24 -26 38 -33 31 -54 71 -54 103 0 22 -43 76 -61 76 -3 0 -43 -22
-88 -50 -160 -95 -283 -125 -490 -117 -103 3 -153 10 -206 27 -288 92 -515
326 -592 610 -28 102 -25 359 5 463 56 194 173 361 338 478 53 39 56 61 14
114 -23 29 -30 48 -30 81 0 23 -3 45 -7 47 -5 2 -30 -9 -58 -25z"/>
<path d="M6252 5859 c-134 -16 -252 -55 -252 -83 0 -18 29 -29 45 -16 30 25
174 52 306 57 161 7 209 0 209 -27 0 -14 15 -23 63 -38 96 -31 117 -33 117
-10 0 17 5 19 25 14 29 -7 45 15 26 38 -16 20 -149 53 -256 66 -103 11 -178
11 -283 -1z"/>
<path d="M6920 5827 c0 -33 -7 -53 -30 -83 -44 -58 -40 -76 27 -125 126 -93
188 -168 262 -316 61 -122 82 -207 88 -353 6 -152 -16 -276 -70 -393 l-35 -77
28 -24 c16 -13 51 -29 77 -34 27 -6 56 -14 65 -17 13 -5 23 5 42 44 67 130
104 254 115 379 28 323 -92 647 -327 880 -64 64 -203 162 -228 162 -10 0 -14
-13 -14 -43z"/>
<path d="M6312 5490 c-23 -5 -47 -12 -52 -15 -12 -8 -13 -178 -1 -173 27 10
281 163 281 169 0 21 -155 34 -228 19z"/>
<path d="M6148 5438 l-28 -10 0 -124 0 -125 30 35 c30 34 31 36 28 134 l-3 99
-27 -9z"/>
<path d="M6618 5295 c-38 -35 -116 -91 -175 -126 -60 -34 -127 -76 -150 -91
l-43 -29 0 -119 c0 -66 2 -120 5 -120 2 0 83 47 178 105 173 104 243 160 253
199 3 12 3 71 2 132 l-3 112 -67 -63z"/>
<path d="M6146 4969 c-25 -29 -26 -36 -26 -157 l0 -126 30 34 c29 35 29 36 30
158 0 67 -2 122 -4 122 -2 0 -16 -14 -30 -31z"/>
<path d="M6664 4843 c-32 -43 -113 -102 -269 -195 l-140 -84 -3 -106 -3 -106
26 -4 c17 -4 40 4 68 21 23 15 69 42 102 60 115 65 197 124 221 161 23 35 24
44 22 159 l-3 123 -21 -29z"/>
<path d="M6141 4471 c-26 -36 -27 -57 -2 -71 35 -18 41 -12 41 45 0 30 -4 55
-9 55 -5 0 -19 -13 -30 -29z"/>
<path d="M5414 3691 c14 -22 336 -227 336 -213 -1 7 -310 213 -332 221 -6 2
-8 -1 -4 -8z"/>
<path d="M5770 3460 c0 -13 18 -22 24 -11 3 5 -1 11 -9 15 -8 3 -15 1 -15 -4z"/>
<path d="M5835 3380 c-9 -18 -14 -34 -11 -37 2 -3 12 9 21 27 9 18 14 34 11
37 -2 3 -12 -9 -21 -27z"/>
<path d="M5870 3098 c-117 -44 -300 -91 -433 -109 -51 -7 -84 -16 -79 -21 10
-10 176 13 299 42 91 21 277 91 309 115 26 20 23 19 -96 -27z"/>
<path d="M6490 2986 c0 -3 9 -10 20 -16 11 -6 20 -8 20 -6 0 3 -9 10 -20 16
-11 6 -20 8 -20 6z"/>
<path d="M5970 2561 c0 -16 6 -31 15 -35 10 -4 15 1 15 15 0 18 5 20 52 18 30
-2 53 1 55 8 5 14 -30 23 -89 23 -46 0 -48 -1 -48 -29z"/>
<path d="M6740 2549 c0 -22 4 -38 9 -34 5 3 12 -7 14 -22 3 -16 4 -6 4 22 l-1
49 47 -3 c37 -2 47 1 47 13 0 13 -12 16 -60 16 l-60 0 0 -41z"/>
<path d="M4425 2569 c-11 -16 0 -21 54 -23 57 -2 71 18 20 28 -45 9 -67 7 -74
-5z"/>
<path d="M7484 2553 c2 -16 4 -43 5 -60 2 -50 21 -39 21 12 l0 45 94 0 c52 0
97 4 100 9 9 14 -32 21 -131 21 l-92 0 3 -27z"/>
<path d="M8180 2427 l0 -145 28 -5 c34 -7 42 1 19 17 -10 8 -17 27 -17 47 0
26 -3 30 -10 19 -7 -11 -10 -4 -9 25 0 31 2 36 9 20 6 -13 9 6 9 60 l1 80 51
-4 c40 -2 50 0 47 10 -3 9 -25 15 -66 17 l-62 3 0 -144z"/>
<path d="M7490 2405 c1 -26 2 -28 11 -12 8 14 8 22 0 30 -8 8 -11 3 -11 -18z"/>
<path d="M5236 2395 c-4 -14 -11 -23 -16 -20 -6 3 -7 -1 -4 -9 3 -9 1 -16 -5
-16 -13 0 -15 -56 -2 -65 5 -3 15 20 22 50 7 31 16 58 21 61 11 7 10 24 -1 24
-5 0 -12 -11 -15 -25z"/>
<path d="M4750 2363 c-15 -31 -21 -63 -11 -63 9 1 37 42 45 68 11 33 -18 29
-34 -5z"/>
<path d="M5262 2360 c0 -14 2 -19 5 -12 2 6 2 18 0 25 -3 6 -5 1 -5 -13z"/>
<path d="M6308 2312 c-7 -10 -28 -29 -46 -42 -21 -16 -28 -26 -20 -31 18 -11
63 16 89 53 19 27 20 30 4 18 -17 -14 -18 -13 -12 3 8 22 2 22 -15 -1z"/>
<path d="M5181 2265 c-1 -5 -5 -26 -10 -46 -8 -34 -7 -36 19 -37 17 0 27 5 27
14 0 8 -5 14 -10 14 -5 0 -7 14 -3 33 4 20 3 27 -3 18 -7 -11 -9 -11 -14 0 -3
8 -6 10 -6 4z"/>
<path d="M6744 2261 c-2 -2 -4 -32 -4 -65 0 -40 3 -56 9 -47 7 11 10 7 14 -15
2 -16 5 2 6 40 l1 69 60 -6 c58 -6 95 7 48 17 -32 7 -129 12 -134 7z"/>
<path d="M7490 2237 c-3 -3 -4 -60 -2 -126 2 -93 6 -118 15 -110 8 8 11 43 9
111 l-3 100 54 -6 c45 -6 54 -4 54 8 0 9 -8 16 -17 16 -10 0 -37 3 -61 6 -24
3 -46 4 -49 1z"/>
<path d="M5970 2196 c0 -18 19 -24 49 -17 43 11 37 31 -8 31 -28 0 -41 -4 -41
-14z"/>
<path d="M4410 2165 c0 -19 5 -35 10 -35 6 0 10 9 10 20 0 16 7 20 33 21 17 0
41 2 51 4 11 2 28 -1 38 -6 27 -14 46 1 23 18 -12 8 -46 13 -92 13 l-73 0 0
-35z"/>
<path d="M8458 2176 c-10 -7 -18 -16 -18 -20 0 -3 20 -62 45 -129 28 -75 51
-124 59 -124 11 0 9 13 -7 56 -61 168 -66 186 -55 198 7 9 7 13 -1 13 -7 0 -9
5 -6 10 8 13 4 12 -17 -4z"/>
<path d="M8181 2048 c1 -51 4 -84 6 -74 4 15 7 16 14 5 5 -9 9 13 9 59 0 68 1
72 23 71 12 0 16 -3 10 -6 -7 -2 -13 -14 -12 -26 0 -22 0 -22 9 1 5 12 16 25
24 28 31 12 4 34 -40 34 l-44 0 1 -92z"/>
<path d="M5223 2061 c-50 -3 -95 -9 -99 -14 -4 -4 0 -15 9 -24 9 -10 17 -12
17 -6 0 7 41 13 110 18 76 5 110 11 107 19 -4 14 -26 15 -144 7z"/>
<path d="M7029 1925 c-46 -25 -141 -33 -307 -28 -149 6 -162 5 -162 -11 0 -16
17 -17 213 -14 194 3 216 5 260 25 27 13 46 27 42 33 -8 13 -14 12 -46 -5z"/>
<path d="M6197 1885 c-6 -13 9 -15 104 -15 84 0 110 3 107 13 -3 8 -36 13
-105 15 -83 2 -102 0 -106 -13z"/>
<path d="M5816 1875 c-6 -17 24 -19 136 -9 96 10 74 24 -37 24 -73 0 -94 -3
-99 -15z"/>
<path d="M5483 1873 c-32 -3 -53 -9 -57 -18 -4 -12 14 -13 112 -8 64 3 119 8
122 10 2 2 -2 8 -10 13 -15 9 -61 10 -167 3z"/>
<path d="M7325 1861 c-8 -14 31 -19 245 -31 102 -6 192 -13 202 -16 15 -4 35
12 26 21 -5 5 -375 35 -430 35 -20 0 -39 -4 -43 -9z"/>
<path d="M5053 1841 c-28 -4 -40 -10 -35 -17 9 -15 114 -6 109 10 -4 14 -20
15 -74 7z"/>
<path d="M4640 1819 c-36 -13 -340 -59 -396 -59 -7 0 -14 -7 -14 -15 0 -18
-15 -19 177 5 151 19 286 50 298 69 10 17 -21 17 -65 0z"/>
<path d="M8002 1808 c4 -12 29 -17 175 -32 52 -6 62 -4 57 7 -3 10 -36 18
-105 26 -125 14 -132 14 -127 -1z"/>
<path d="M8415 1760 c-3 -6 0 -12 7 -14 28 -9 210 -27 216 -22 13 14 -17 23
-104 34 -111 14 -111 14 -119 2z"/>
<path d="M4292 1616 c2 -8 52 -67 111 -130 162 -173 374 -347 562 -461 59 -36
111 -65 115 -65 4 0 11 7 14 15 8 21 -15 40 -174 145 -168 110 -289 211 -453
379 -97 98 -135 131 -154 131 -16 0 -23 -5 -21 -14z"/>
<path d="M8320 1480 c-163 -165 -294 -274 -463 -384 -104 -68 -168 -128 -154
-143 22 -21 387 236 559 394 116 107 258 257 258 273 0 6 -12 10 -27 9 -22 -1
-59 -33 -173 -149z"/>
<path d="M5442 1563 c-18 -3 -32 -9 -30 -15 2 -6 45 -10 108 -10 139 0 139 0
120 11 -18 10 -151 19 -198 14z"/>
<path d="M7242 1554 c2 -12 15 -17 53 -17 28 -1 51 3 53 8 4 12 -31 23 -76 24
-26 1 -33 -3 -30 -15z"/>
<path d="M6080 1335 c7 -8 16 -12 21 -9 13 8 1 24 -18 24 -13 0 -13 -3 -3 -15z"/>
<path d="M6077 1280 c-13 -21 -17 -52 -17 -117 0 -53 4 -83 9 -74 7 11 9 11
14 0 3 -8 6 28 6 80 1 70 5 99 16 111 13 15 14 18 2 23 -8 3 -21 -6 -30 -23z"/>
<path d="M6436 1288 c4 -13 11 -39 15 -58 6 -29 7 -25 6 23 -1 41 -5 57 -15
57 -9 0 -11 -7 -6 -22z"/>
<path d="M6871 1297 c-13 -13 -15 -37 -3 -37 4 0 15 9 24 19 13 15 14 21 3 24
-7 3 -18 0 -24 -6z"/>
<path d="M5410 1235 c0 -12 14 -15 65 -15 51 0 65 3 65 15 0 12 -14 15 -65 15
-51 0 -65 -3 -65 -15z"/>
<path d="M7650 1191 c-23 -26 -40 -82 -31 -99 8 -14 26 24 46 96 7 26 5 26
-15 3z"/>
<path d="M7460 956 c-38 -17 -70 -21 -207 -24 -137 -3 -163 -6 -163 -19 0 -13
21 -15 153 -10 154 5 242 22 266 51 20 23 -1 24 -49 2z"/>
<path d="M5232 918 c3 -9 37 -14 117 -16 88 -2 112 0 109 10 -3 9 -37 14 -117
16 -88 2 -112 0 -109 -10z"/>
<path d="M5910 915 c0 -12 15 -15 74 -15 40 0 87 3 105 6 59 12 19 24 -80 24
-81 0 -99 -3 -99 -15z"/>
<path d="M6290 915 c0 -12 17 -15 90 -15 73 0 90 3 90 15 0 12 -17 15 -90 15
-73 0 -90 -3 -90 -15z"/>
<path d="M6765 920 c-4 -6 7 -10 24 -10 17 0 31 5 31 10 0 6 -11 10 -24 10
-14 0 -28 -4 -31 -10z"/>
<path d="M5450 791 c0 -18 320 -109 475 -135 334 -57 615 -59 932 -5 195 32
513 126 477 140 -34 13 -67 9 -174 -21 -337 -98 -735 -134 -1037 -95 -163 22
-350 60 -467 95 -95 29 -206 40 -206 21z"/>
</g>
</svg>
